<?xml version="1.0" encoding="UTF-8"?>
<svg width="32px" height="32px" viewBox="0 0 32 32" version="1.1" xmlns="http://www.w3.org/2000/svg" xmlns:xlink="http://www.w3.org/1999/xlink">
    <title>Slice</title>
    <defs>
        <linearGradient x1="50%" y1="0%" x2="50%" y2="100%" id="linearGradient-1">
            <stop stop-color="#FBFBFB" offset="0%"></stop>
            <stop stop-color="#000000" offset="100%"></stop>
        </linearGradient>
    </defs>
    <g id="Page-1" stroke="none" stroke-width="1" fill="none" fill-rule="evenodd">
        <g id="Group" transform="translate(10, 16)" fill-rule="nonzero">
            <path d="M7,2.00005035 C3.13386314,2.00005035 0,1.1047703 0,7.55191945e-05 L0,4.00002517 C0,5.10464443 3.13386314,6 7,6 C10.8661369,6 14,5.10464443 14,3.99994965 L14,0 C14,1.10469478 10.8661369,2.00005035 7,2.00005035" id="Path" fill="#00D0E4"></path>
            <path d="M7,6 C3.13386314,6 0,5.10470868 0,4 L0,8 C0,9.10463316 3.13386314,10 7,10 C10.8661369,10 14,9.10463316 14,8 L14,4 C14,5.10470868 10.8661369,6 7,6" id="Path" fill="#FEE100"></path>
            <path d="M7,10.0000503 C3.13386314,10.0000503 0,9.1047703 0,8.00007552 L0,12.0000252 C0,13.1046444 3.13386314,14 7,14 C10.8661369,14 14,13.1046444 14,11.9999497 L14,8 C14,9.10469478 10.8661369,10.0000503 7,10.0000503" id="Path" fill="#A23CFF"></path>
            <path d="M7,3 C3.13386314,3 0,1.65706302 0,0 L14,0 C14,1.65694974 10.8661369,3 7,3 Z" id="Path" fill="#00D5B7"></path>
        </g>
        <g id="SVGmix-zl0VVM-lighter" transform="translate(3, 1)" fill-rule="nonzero">
            <path d="M20.25,13.5 L18,13.5 L18,11.25 C18,10.986 17.856,10.765 17.65,10.632 C18.317,9.906 18.735,8.956 18.749,7.904 C19.017,4.78 17.009,1.938 13.976,1.146 C13.659,1.06 13.325,1.194 13.151,1.47 C12.976,1.746 13.001,2.103 13.21,2.353 C13.898,3.174 14.085,4.299 13.732,5.286 C13.602,5.197 13.509,5.057 13.485,4.891 C13.449,4.648 13.297,4.438 13.078,4.329 C12.857,4.219 12.599,4.225 12.384,4.341 C11.103,5.04 10.336,6.432 10.429,7.84 C10.429,8.857 10.81,9.777 11.419,10.5 L11.25,10.5 C10.836,10.5 10.5,10.836 10.5,11.25 L10.5,13.5 L7.5,13.5 L7.5,0.75 C7.5,0.336 7.164,0 6.75,0 L2.25,0 C1.009,0 0,1.009 0,2.25 L0,12.75 C0,13.99 1.009,15 2.25,15 L6,15 L21,15 C21,14.586 20.664,13.5 20.25,13.5 Z M12,12 L16.5,12 L16.5,13.5 L12,13.5 L12,12 L12,12 Z" id="Shape" fill="#000000"></path>
            <path d="M1.5,12.75 L1.5,2.25 C1.5,1.836 1.836,1.5 2.25,1.5 L6,1.5 L6,13.5 L2.25,13.5 C1.836,13.5 1.5,13.163 1.5,12.75 Z" id="Path" fill="url(#linearGradient-1)"></path>
            <path d="M11.928,7.791 C11.889,7.187 12.096,6.602 12.481,6.159 C12.902,6.648 13.548,6.938 14.223,6.882 C14.47,6.863 14.692,6.722 14.815,6.507 C15.358,5.56 15.522,4.467 15.328,3.436 C16.639,4.432 17.401,6.061 17.251,7.83 C17.231,9.308 16.058,10.481 14.59,10.5 C13.123,10.5 11.93,9.307 11.928,7.791 Z" id="Path" fill="#FF5F00"></path>
        </g>
    </g>
</svg>